<svg width="40" height="40" viewBox="0 0 40 40" fill="none" xmlns="http://www.w3.org/2000/svg">
<path d="M28.5891 14.135L28.5751 14.129C28.5671 14.126 28.5591 14.123 28.5521 14.116C28.5406 14.1037 28.5321 14.0889 28.5272 14.0727C28.5224 14.0566 28.5213 14.0396 28.5241 14.023L29.2971 9.29699L32.9221 12.923L29.1521 14.527C29.1416 14.5312 29.1303 14.5333 29.1191 14.533H29.1041C29.0991 14.53 29.0941 14.526 29.0841 14.516C28.9438 14.3598 28.776 14.2306 28.5891 14.135ZM33.8471 13.847L37.7231 17.723C38.5281 18.529 38.9311 18.931 39.0781 19.397C39.1001 19.466 39.1181 19.535 39.1321 19.606L29.8691 15.683C29.8641 15.6809 29.8591 15.6789 29.8541 15.677C29.8171 15.662 29.7741 15.645 29.7741 15.607C29.7741 15.569 29.8181 15.551 29.8551 15.536L29.8671 15.531L33.8471 13.847ZM38.9741 20.85C38.7741 21.226 38.3841 21.616 37.7241 22.277L33.3541 26.646L27.7021 25.469L27.6721 25.463C27.6221 25.455 27.5691 25.446 27.5691 25.401C27.5476 25.1678 27.4784 24.9416 27.3657 24.7363C27.253 24.5311 27.0993 24.3512 26.9141 24.208C26.8911 24.185 26.8971 24.149 26.9041 24.116C26.9041 24.111 26.9041 24.106 26.9061 24.102L27.9691 17.576L27.9731 17.554C27.9791 17.504 27.9881 17.446 28.0331 17.446C28.2609 17.4176 28.4807 17.3443 28.6799 17.2301C28.8791 17.1159 29.0535 16.9632 29.1931 16.781C29.2021 16.771 29.2081 16.76 29.2201 16.754C29.2521 16.739 29.2901 16.754 29.3231 16.768L38.9731 20.85H38.9741ZM32.3491 27.651L25.1631 34.837L26.3931 27.277L26.3951 27.267C26.3961 27.257 26.3981 27.247 26.4011 27.238C26.4111 27.214 26.4371 27.204 26.4621 27.194L26.4741 27.189C26.7434 27.0741 26.9816 26.8969 27.1691 26.672C27.1931 26.644 27.2221 26.617 27.2591 26.612C27.2687 26.6104 27.2785 26.6104 27.2881 26.612L32.3481 27.652L32.3491 27.651ZM23.6421 36.358L22.8321 37.168L13.8771 24.226C13.8738 24.2213 13.8705 24.2166 13.8671 24.212C13.8531 24.193 13.8381 24.174 13.8411 24.152C13.8421 24.136 13.8521 24.122 13.8631 24.11L13.8731 24.097C13.9001 24.057 13.9231 24.017 13.9481 23.974L13.9681 23.939L13.9711 23.936C13.9851 23.912 13.9981 23.889 14.0221 23.876C14.0431 23.866 14.0721 23.87 14.0951 23.875L24.0161 25.921C24.0438 25.9253 24.07 25.9367 24.0921 25.954C24.1051 25.967 24.1081 25.981 24.1111 25.997C24.1803 26.2588 24.3091 26.5011 24.4874 26.7049C24.6657 26.9088 24.8887 27.0686 25.1391 27.172C25.1671 27.186 25.1551 27.217 25.1421 27.25C25.1356 27.2645 25.1305 27.2795 25.1271 27.295C25.0021 28.055 23.9301 34.593 23.6421 36.358ZM21.9501 38.049C21.3531 38.64 21.0011 38.953 20.6031 39.079C20.2106 39.2031 19.7895 39.2031 19.3971 39.079C18.9311 38.931 18.5281 38.529 17.7231 37.723L8.73005 28.73L11.0791 25.087C11.0901 25.069 11.1011 25.053 11.1191 25.04C11.1441 25.022 11.1801 25.03 11.2101 25.04C11.7492 25.2026 12.3281 25.1733 12.8481 24.957C12.8751 24.947 12.9021 24.94 12.9231 24.959C12.9336 24.9686 12.9429 24.9793 12.9511 24.991L21.9501 38.05V38.049ZM7.86305 27.863L5.80006 25.8L9.87405 24.062C9.88447 24.0574 9.89569 24.0551 9.90705 24.055C9.94105 24.055 9.96105 24.089 9.97905 24.12C10.02 24.183 10.0634 24.2444 10.1091 24.304L10.1221 24.32C10.1341 24.337 10.1261 24.354 10.1141 24.37L7.86405 27.863H7.86305ZM4.88705 24.887L2.27705 22.277C1.83305 21.833 1.51105 21.511 1.28705 21.234L9.22305 22.88C9.23302 22.8818 9.24302 22.8835 9.25305 22.885C9.30205 22.893 9.35605 22.902 9.35605 22.948C9.35605 22.998 9.29705 23.021 9.24705 23.04L9.22405 23.05L4.88705 24.887ZM0.831055 19.892C0.840099 19.7239 0.870338 19.5575 0.921055 19.397C1.06905 18.931 1.47105 18.529 2.27705 17.723L5.61705 14.383C7.15489 16.6149 8.69689 18.8439 10.2431 21.07C10.2701 21.106 10.3001 21.146 10.2691 21.176C10.1231 21.337 9.97705 21.513 9.87405 21.704C9.86288 21.7285 9.84568 21.7499 9.82405 21.766C9.81106 21.774 9.79705 21.771 9.78205 21.768H9.78005L0.831055 19.891V19.892ZM6.51105 13.489L11.0021 8.99799C11.4241 9.18299 12.9601 9.83199 14.3341 10.412C15.3741 10.852 16.3221 11.252 16.6201 11.382C16.6501 11.394 16.6771 11.406 16.6901 11.436C16.6981 11.454 16.6941 11.477 16.6901 11.496C16.619 11.8202 16.6295 12.1569 16.7208 12.476C16.8121 12.7951 16.9813 13.0865 17.2131 13.324C17.2431 13.354 17.2131 13.397 17.1871 13.434L17.1731 13.455L12.6131 20.518C12.6011 20.538 12.5901 20.555 12.5701 20.568C12.5461 20.583 12.5121 20.576 12.4841 20.569C12.3067 20.5225 12.1244 20.4977 11.9411 20.495C11.7771 20.495 11.5991 20.525 11.4191 20.558H11.4181C11.3981 20.561 11.3801 20.565 11.3641 20.553C11.3464 20.5385 11.3312 20.5213 11.3191 20.502L6.51105 13.489ZM11.9091 8.09099L17.7231 2.27699C18.5281 1.47199 18.9311 1.06899 19.3971 0.921986C19.7895 0.797896 20.2106 0.797896 20.6031 0.921986C21.0691 1.06899 21.4721 1.47199 22.2771 2.27699L23.5371 3.53699L19.4021 9.94099C19.3918 9.95963 19.3779 9.97597 19.3611 9.98899C19.3361 10.006 19.3011 9.99899 19.2711 9.98899C18.945 9.89005 18.5998 9.87204 18.2653 9.93651C17.9308 10.001 17.617 10.146 17.3511 10.359C17.3241 10.387 17.2841 10.371 17.2501 10.356C16.7101 10.121 12.5101 8.34599 11.9091 8.09099ZM24.4151 4.41499L28.2331 8.23299L27.3131 13.931V13.946C27.3122 13.959 27.3095 13.9718 27.3051 13.984C27.2951 14.004 27.2751 14.008 27.2551 14.014C27.0584 14.0736 26.8731 14.1659 26.7071 14.287C26.6999 14.2921 26.6932 14.2978 26.6871 14.304C26.6761 14.316 26.6651 14.327 26.6471 14.329C26.6324 14.3294 26.6178 14.3271 26.6041 14.322L20.7861 11.85L20.7751 11.845C20.7381 11.83 20.6941 11.812 20.6941 11.774C20.6599 11.4498 20.554 11.1372 20.3841 10.859C20.3561 10.813 20.3251 10.765 20.3491 10.718L24.4151 4.41499ZM20.4831 13.021L25.9371 15.331C25.9671 15.345 26.0001 15.358 26.0131 15.389C26.0183 15.4076 26.0183 15.4273 26.0131 15.446C25.9971 15.526 25.9831 15.617 25.9831 15.709V15.862C25.9831 15.9 25.9441 15.916 25.9081 15.931L25.8971 15.935C25.0331 16.304 13.7671 21.108 13.7501 21.108C13.7331 21.108 13.7151 21.108 13.6981 21.091C13.6681 21.061 13.6981 21.019 13.7251 20.981C13.7298 20.9744 13.7345 20.9677 13.7391 20.961L18.2211 14.021L18.2291 14.009C18.2551 13.967 18.2851 13.92 18.3331 13.92L18.3781 13.927C18.4801 13.941 18.5701 13.954 18.6611 13.954C19.3411 13.954 19.9711 13.623 20.3511 13.057C20.3601 13.0419 20.3716 13.0284 20.3851 13.017C20.4121 12.997 20.4521 13.007 20.4831 13.021ZM14.2371 22.206L26.5171 16.969C26.5171 16.969 26.5351 16.969 26.5521 16.986C26.6191 17.053 26.6761 17.098 26.7311 17.14L26.7581 17.157C26.7831 17.171 26.8081 17.187 26.8101 17.213C26.8101 17.223 26.8101 17.229 26.8081 17.238L25.7561 23.7L25.7521 23.726C25.7451 23.776 25.7381 23.833 25.6911 23.833C25.4106 23.8519 25.139 23.9389 24.8997 24.0865C24.6605 24.2341 24.4608 24.4378 24.3181 24.68L24.3131 24.688C24.2991 24.711 24.2861 24.733 24.2631 24.745C24.2421 24.755 24.2151 24.751 24.1931 24.746L14.4001 22.726C14.3901 22.724 14.2481 22.207 14.2371 22.206Z" fill="url(#paint0_radial_56_328)"/>
<defs>
<radialGradient id="paint0_radial_56_328" cx="0" cy="0" r="1" gradientUnits="userSpaceOnUse" gradientTransform="translate(-0.454874 19.4595) rotate(90) scale(38.3009 44.2199)">
<stop stop-color="#20C6B7"/>
<stop offset="1" stop-color="#4D9ABF"/>
</radialGradient>
</defs>
</svg>
