<svg width="360" height="360" viewBox="0 0 360 360" fill="none" xmlns="http://www.w3.org/2000/svg">
<path d="M257.301 127.215L257.176 127.161C257.104 127.134 257.031 127.107 256.969 127.044C256.865 126.933 256.789 126.8 256.745 126.655C256.701 126.51 256.692 126.356 256.716 126.207L263.673 83.6729L296.298 116.307L262.368 130.743C262.274 130.781 262.173 130.799 262.071 130.797H261.936C261.891 130.77 261.846 130.734 261.757 130.644C260.494 129.238 258.984 128.076 257.301 127.215ZM304.623 124.623L339.507 159.507C346.752 166.761 350.379 170.379 351.702 174.573C351.9 175.194 352.062 175.815 352.188 176.454L268.822 141.147C268.777 141.128 268.732 141.11 268.686 141.093C268.353 140.958 267.966 140.805 267.966 140.463C267.966 140.121 268.362 139.959 268.695 139.824L268.803 139.779L304.623 124.623ZM350.766 187.65C348.966 191.034 345.456 194.544 339.516 200.493L300.186 239.814L249.318 229.221L249.049 229.167C248.599 229.095 248.122 229.014 248.122 228.609C247.928 226.51 247.305 224.474 246.291 222.627C245.277 220.78 243.893 219.161 242.227 217.872C242.02 217.665 242.073 217.341 242.136 217.044C242.136 216.999 242.137 216.954 242.154 216.918L251.721 158.184L251.757 157.986C251.811 157.536 251.893 157.014 252.298 157.014C254.348 156.759 256.327 156.098 258.119 155.071C259.911 154.043 261.481 152.669 262.738 151.029C262.819 150.939 262.872 150.84 262.98 150.786C263.268 150.651 263.611 150.786 263.908 150.912L350.757 187.65H350.766ZM291.141 248.859L226.467 313.533L237.537 245.493L237.555 245.403C237.564 245.313 237.582 245.223 237.609 245.142C237.699 244.926 237.934 244.836 238.158 244.746L238.267 244.701C240.69 243.667 242.834 242.072 244.521 240.048C244.738 239.796 244.999 239.553 245.332 239.508C245.418 239.494 245.506 239.494 245.592 239.508L291.133 248.868L291.141 248.859ZM212.779 327.222L205.489 334.512L124.893 218.034C124.864 217.991 124.834 217.949 124.803 217.908C124.677 217.737 124.542 217.566 124.569 217.368C124.578 217.224 124.668 217.098 124.767 216.99L124.857 216.873C125.1 216.513 125.307 216.153 125.532 215.766L125.712 215.451L125.739 215.424C125.865 215.208 125.982 215.001 126.198 214.884C126.387 214.794 126.648 214.83 126.855 214.875L216.145 233.289C216.394 233.328 216.63 233.43 216.828 233.586C216.945 233.703 216.973 233.829 216.999 233.973C217.622 236.329 218.781 238.51 220.386 240.344C221.991 242.179 223.999 243.617 226.251 244.548C226.503 244.674 226.395 244.953 226.279 245.25C226.22 245.38 226.175 245.516 226.144 245.655C225.019 252.495 215.37 311.337 212.779 327.222ZM197.551 342.441C192.178 347.76 189.01 350.577 185.428 351.711C181.896 352.828 178.105 352.828 174.573 351.711C170.379 350.379 166.752 346.761 159.507 339.507L78.5705 258.57L99.7115 225.783C99.8105 225.621 99.9095 225.477 100.071 225.36C100.296 225.198 100.62 225.27 100.89 225.36C105.743 226.824 110.953 226.56 115.632 224.613C115.875 224.523 116.118 224.46 116.307 224.631C116.402 224.717 116.487 224.814 116.559 224.919L197.551 342.45V342.441ZM70.7675 250.767L52.2005 232.2L88.8665 216.558C88.9602 216.517 89.0612 216.496 89.1635 216.495C89.4695 216.495 89.6495 216.801 89.8115 217.08C90.18 217.647 90.5703 218.199 90.9815 218.736L91.0985 218.88C91.2065 219.033 91.1345 219.186 91.0265 219.33L70.7765 250.767H70.7675ZM43.9835 223.983L20.4935 200.493C16.4975 196.497 13.5995 193.599 11.5835 191.106L83.0075 205.92C83.0972 205.936 83.1872 205.952 83.2775 205.965C83.7185 206.037 84.2045 206.118 84.2045 206.532C84.2045 206.982 83.6735 207.189 83.2235 207.36L83.0165 207.45L43.9835 223.983ZM7.47949 179.028C7.56089 177.515 7.83304 176.018 8.28949 174.573C9.62149 170.379 13.2395 166.761 20.4935 159.507L50.5535 129.447C64.394 149.534 78.272 169.595 92.1875 189.63C92.4305 189.954 92.7005 190.314 92.4215 190.584C91.1075 192.033 89.7935 193.617 88.8665 195.336C88.7659 195.557 88.6111 195.749 88.4165 195.894C88.2995 195.966 88.1735 195.939 88.0385 195.912H88.0205L7.47949 179.019V179.028ZM58.5995 121.401L99.0185 80.9819C102.816 82.6469 116.64 88.4879 129.006 93.7079C138.366 97.6679 146.898 101.268 149.58 102.438C149.85 102.546 150.093 102.654 150.21 102.924C150.283 103.086 150.246 103.293 150.21 103.464C149.571 106.381 149.666 109.412 150.487 112.284C151.309 115.156 152.831 117.778 154.917 119.916C155.187 120.186 154.917 120.573 154.684 120.906L154.557 121.095L113.517 184.662C113.409 184.842 113.31 184.995 113.13 185.112C112.914 185.247 112.608 185.184 112.356 185.121C110.76 184.703 109.119 184.479 107.469 184.455C105.993 184.455 104.391 184.725 102.771 185.022H102.762C102.582 185.049 102.42 185.085 102.276 184.977C102.117 184.847 101.981 184.692 101.871 184.518L58.5995 121.401ZM107.181 72.8189L159.507 20.4929C166.752 13.2479 170.379 9.62087 174.573 8.29787C178.105 7.18106 181.896 7.18106 185.428 8.29787C189.622 9.62087 193.249 13.2479 200.493 20.4929L211.833 31.8329L174.618 89.4689C174.526 89.6367 174.401 89.7837 174.249 89.9009C174.025 90.0539 173.71 89.9909 173.439 89.9009C170.505 89.0105 167.398 88.8483 164.388 89.4286C161.377 90.0088 158.553 91.3139 156.16 93.2309C155.917 93.4829 155.557 93.3389 155.251 93.2039C150.391 91.0889 112.59 75.1139 107.181 72.8189ZM219.736 39.7349L254.098 74.0969L245.817 125.379V125.514C245.81 125.631 245.786 125.746 245.745 125.856C245.656 126.036 245.475 126.072 245.295 126.126C243.525 126.662 241.858 127.493 240.364 128.583C240.299 128.629 240.239 128.68 240.184 128.736C240.085 128.844 239.985 128.943 239.823 128.961C239.692 128.965 239.56 128.944 239.436 128.898L187.074 106.65L186.975 106.605C186.643 106.47 186.247 106.308 186.247 105.966C185.939 103.048 184.986 100.235 183.457 97.7309C183.204 97.3169 182.926 96.8849 183.142 96.4619L219.736 39.7349ZM184.348 117.189L233.434 137.979C233.704 138.105 234.001 138.222 234.118 138.501C234.164 138.669 234.164 138.846 234.118 139.014C233.973 139.734 233.848 140.553 233.848 141.381V142.758C233.848 143.1 233.497 143.244 233.173 143.379L233.073 143.415C225.297 146.736 123.903 189.972 123.75 189.972C123.597 189.972 123.435 189.972 123.282 189.819C123.012 189.549 123.282 189.171 123.525 188.829C123.568 188.77 123.61 188.71 123.651 188.649L163.99 126.189L164.061 126.081C164.296 125.703 164.566 125.28 164.997 125.28L165.402 125.343C166.32 125.469 167.13 125.586 167.949 125.586C174.069 125.586 179.74 122.607 183.16 117.513C183.241 117.377 183.344 117.255 183.465 117.153C183.708 116.973 184.068 117.063 184.348 117.189ZM128.133 199.854L238.654 152.721C238.654 152.721 238.815 152.721 238.969 152.874C239.572 153.477 240.085 153.882 240.579 154.26L240.822 154.413C241.047 154.539 241.272 154.683 241.29 154.917C241.29 155.007 241.29 155.061 241.273 155.142L231.805 213.3L231.769 213.534C231.706 213.984 231.643 214.497 231.219 214.497C228.695 214.667 226.251 215.451 224.097 216.779C221.944 218.107 220.147 219.94 218.863 222.12L218.817 222.192C218.691 222.399 218.575 222.597 218.368 222.705C218.178 222.795 217.936 222.759 217.738 222.714L129.6 204.534C129.51 204.516 128.232 199.863 128.133 199.854Z" fill="#000000"/>
</svg>
