<svg width="0" height="0">

  <symbol xmlns="http://www.w3.org/2000/svg" viewBox="0 0 256 105" id="netlify-logo-full-small">
    <g fill="var(--_netlify-logo-lines-color)"><path d="M58.47 103.765v-26.35l.547-.547h6.587l.546.546v26.351l-.546.546h-6.587l-.547-.546ZM58.47 26.897V.547L59.017 0h6.587l.546.546v26.351l-.546.546h-6.587l-.547-.546ZM35.797 85.24h-.904l-4.531-4.532v-.904l8.49-8.5 4.796.01.64.63v4.796l-8.49 8.5ZM30.362 24.747v-.913l4.53-4.523h.905l8.491 8.49v4.788l-.64.648h-4.796l-8.49-8.49ZM.546 48.307H37.88l.546.546v6.597l-.547.546H.547L0 55.45v-6.597l.546-.546ZM220.314 48.316h35.131l.546.546v6.588l-.546.546h-37.879l-.546-.546 2.739-6.588.546-.546h.009Z"/></g><g fill="var(--_netlify-logo-text-color)"><path d="M74.667 65.886h-6.588l-.546-.546V49.92c0-2.748-1.075-4.873-4.386-4.94-1.707-.043-3.653 0-5.735.085l-.316.315v19.951l-.546.546h-6.587l-.547-.546v-26.35l.547-.547h14.822c5.76 0 10.428 4.668 10.428 10.428v16.47l-.546.545v.009ZM106.573 54.349l-.546.546H88.994l-.546.546c0 1.1 1.1 4.395 5.496 4.395 1.646 0 3.293-.546 3.848-1.647l.546-.546h6.588l.546.546c-.546 3.294-3.294 8.243-11.537 8.243-9.335 0-13.73-6.588-13.73-14.285S84.6 37.862 93.389 37.862s13.184 6.588 13.184 14.285v2.202Zm-8.243-5.496c0-.546-.546-4.394-4.941-4.394s-4.941 3.848-4.941 4.394l.546.547h8.79l.546-.547ZM121.95 57.643c0 1.1.546 1.647 1.647 1.647h4.941l.546.546v5.495l-.546.546h-4.941c-4.941 0-9.336-2.201-9.336-8.243V45.551l-.546-.546h-3.848l-.546-.546v-5.496l.546-.546h3.848l.546-.546v-4.94l.546-.547h6.588l.546.546v4.94l.546.547h6.042l.546.546v5.496l-.546.546h-6.042l-.546.546v12.083l.009.009ZM142.276 65.886h-6.588l-.546-.546V27.98l.546-.545h6.588l.546.546v37.35l-.546.546v.009ZM157.107 34.022h-6.588l-.546-.546v-5.495l.546-.546h6.588l.546.546v5.495l-.546.546Zm0 31.864h-6.588l-.546-.546V38.972l.546-.546h6.588l.546.546V65.34l-.546.546ZM182.929 27.98v5.496l-.546.546h-4.941c-1.101 0-1.647.547-1.647 1.647v2.202l.546.546h5.496l.546.546v5.496l-.546.546h-5.496l-.546.546v19.772l-.546.546h-6.588l-.546-.546V45.55l-.546-.546h-3.849l-.546-.546v-5.496l.546-.546h3.849l.546-.546v-2.202c0-6.041 4.395-8.243 9.336-8.243h4.94l.547.546-.009.009ZM203.247 66.432c-2.202 5.495-4.395 8.79-12.083 8.79h-2.748l-.546-.547V69.18l.546-.546h2.748c2.747 0 3.294-.546 3.848-2.194v-.546l-8.789-21.427v-5.495l.546-.546h4.941l.546.546 6.588 18.68h.546l6.588-18.68.546-.546h4.941l.546.546v5.495l-8.79 21.974.026-.009Z"/></g>
  </symbol>

</svg>
